<?xml version="1.0" standalone="no"?>
<!DOCTYPE svg PUBLIC "-//W3C//DTD SVG 20010904//EN"
 "http://www.w3.org/TR/2001/REC-SVG-20010904/DTD/svg10.dtd">
<svg version="1.0" xmlns="http://www.w3.org/2000/svg"
 width="743.000000pt" height="577.000000pt" viewBox="0 0 743.000000 577.000000"
 preserveAspectRatio="xMidYMid meet">

<g transform="translate(0.000000,577.000000) scale(0.100000,-0.100000)"
fill="#000000" stroke="none">
<path d="M0 2885 l0 -2885 3715 0 3715 0 0 2885 0 2885 -3715 0 -3715 0 0
-2885z m1912 408 c88 -41 160 -113 201 -201 30 -64 32 -73 32 -187 0 -114 -2
-123 -31 -186 -54 -113 -136 -186 -254 -225 -70 -23 -340 -27 -362 -6 -17 17
-25 773 -8 816 l10 28 173 -4 c169 -3 173 -4 239 -35z m1558 11 c6 -14 10 -99
10 -190 l0 -164 265 0 265 0 0 178 c0 125 4 182 12 190 18 18 56 14 68 -7 6
-13 10 -160 10 -410 0 -382 0 -391 -21 -412 -18 -18 -23 -19 -42 -6 -21 14
-22 22 -25 201 l-2 186 -265 0 -265 0 0 -176 c0 -102 -4 -183 -10 -195 -13
-24 -65 -26 -74 -3 -3 9 -6 194 -6 413 0 295 3 400 12 409 21 21 58 14 68 -14z
m1558 14 c9 -9 12 -101 12 -352 0 -322 1 -343 20 -373 16 -27 26 -33 54 -33
40 0 60 -21 52 -54 -7 -29 -40 -39 -86 -26 -53 15 -81 39 -103 88 -21 45 -22
64 -25 377 -4 353 0 385 41 385 13 0 28 -5 35 -12z m-2608 -28 c11 -11 20 -29
20 -40 0 -26 -34 -60 -62 -60 -53 0 -79 74 -36 104 30 21 54 20 78 -4z m-5
-516 l0 -289 -35 0 -35 0 -3 285 c-2 253 -1 286 14 297 10 7 24 9 37 4 22 -8
22 -11 22 -297z m595 290 c41 -12 67 -29 110 -72 78 -79 91 -119 97 -307 6
-180 -1 -208 -49 -203 -32 3 -33 5 -36 51 l-3 48 -43 -39 c-57 -52 -129 -76
-211 -70 -157 13 -269 139 -268 303 1 215 191 352 403 289z m1675 -12 c79 -40
126 -108 144 -206 18 -100 28 -96 -241 -96 l-231 0 6 -37 c22 -134 190 -205
325 -137 56 28 79 28 95 2 15 -23 -3 -42 -69 -74 -156 -76 -337 -17 -411 134
-39 79 -39 191 -2 272 38 81 97 134 179 161 44 15 162 4 205 -19z m1050 -6
c139 -69 202 -253 136 -401 -79 -178 -311 -231 -455 -104 l-46 40 -2 -172 c-3
-151 -5 -173 -20 -183 -13 -8 -23 -8 -35 0 -16 10 -18 38 -21 310 -3 356 -1
367 88 456 70 70 123 89 227 84 53 -2 86 -10 128 -30z"/>
<path d="M1570 2900 l0 -353 123 5 c78 4 136 11 160 21 271 114 290 509 32
645 -45 24 -63 27 -182 30 l-133 4 0 -352z"/>
<path d="M2825 2987 c-84 -38 -135 -119 -135 -212 0 -137 100 -232 236 -223
77 5 132 38 171 105 23 40 28 59 28 118 0 59 -5 78 -28 118 -41 69 -94 101
-176 104 -40 2 -78 -2 -96 -10z"/>
<path d="M4475 2986 c-39 -17 -79 -58 -99 -100 -32 -68 -37 -66 179 -66 190 0
195 1 195 20 0 51 -59 129 -113 149 -39 15 -125 13 -162 -3z"/>
<path d="M5491 2978 c-119 -58 -155 -231 -72 -346 76 -104 252 -110 335 -11
41 48 56 90 56 154 0 64 -15 106 -56 154 -59 70 -175 92 -263 49z"/>
</g>
</svg>
